<svg xmlns="http://www.w3.org/2000/svg" width="1200" height="630" viewBox="0 0 1200 630">
  <defs>
    <pattern id="fiber" width="18" height="18" patternUnits="userSpaceOnUse" patternTransform="rotate(2)">
      <path d="M0 1h18" stroke="#594b3d" stroke-opacity=".035"/>
    </pattern>
  </defs>
  <rect width="1200" height="630" fill="#f8f2e7"/>
  <rect width="1200" height="630" fill="url(#fiber)"/>
  <path d="M94 84v462" stroke="#a86955" stroke-opacity=".55" stroke-width="2"/>
  <rect x="126" y="93" width="70" height="78" fill="#4b3039"/>
  <text x="161" y="147" text-anchor="middle" fill="#fffaf1" font-family="Georgia,serif" font-size="42" font-style="italic">H</text>
  <text x="126" y="250" fill="#76515d" font-family="Arial,sans-serif" font-size="20" font-weight="700" letter-spacing="4">A PERSONAL WRITING ARCHIVE</text>
  <text x="126" y="362" fill="#29241f" font-family="Georgia,serif" font-size="92">Held Here</text>
  <text x="130" y="425" fill="#5f574f" font-family="Georgia,serif" font-size="29">Grief, illness, memory, mental health, love, and care.</text>
  <g transform="translate(930 116)" fill="none" stroke="#66705d" stroke-linecap="round" stroke-linejoin="round" stroke-width="4" opacity=".72">
    <path d="M90 390c-6-78 10-147-7-222-10-45-2-91 20-138"/>
    <path d="M87 278c-46-18-71-47-83-89 43 11 72 38 83 89Z" fill="#66705d" fill-opacity=".07"/>
    <path d="M88 230c43-24 67-58 73-101-42 16-67 49-73 101Z" fill="#66705d" fill-opacity=".07"/>
    <path d="M83 168c-39-13-64-42-77-83 41 11 66 39 77 83Z" fill="#66705d" fill-opacity=".07"/>
    <circle cx="102" cy="31" r="9"/>
  </g>
  <text x="126" y="528" fill="#76515d" font-family="Georgia,serif" font-size="23" font-style="italic">A place for what should not disappear.</text>
</svg>
